<svg xmlns="http://www.w3.org/2000/svg" width="1440" height="900"><path d="M789,481L659,413L535,629Z" fill="#6badd5" stroke="#6badd5" stroke-width="1.51"/><path d="M535,629L869,676L789,481Z" fill="#5da3d0" stroke="#5da3d0" stroke-width="1.51"/><path d="M535,629L614,871L869,676Z" fill="#589ccc" stroke="#589ccc" stroke-width="1.51"/><path d="M322,499L442,696L535,629Z" fill="#78b1d5" stroke="#78b1d5" stroke-width="1.51"/><path d="M442,696L614,871L535,629Z" fill="#67a2ce" stroke="#67a2ce" stroke-width="1.51"/><path d="M659,413L322,499L535,629Z" fill="#7ab4d8" stroke="#7ab4d8" stroke-width="1.51"/><path d="M802,174L540,245L659,413Z" fill="#87bcdc" stroke="#87bcdc" stroke-width="1.51"/><path d="M540,245L322,499L659,413Z" fill="#88bddc" stroke="#88bddc" stroke-width="1.51"/><path d="M869,676L1045,435L789,481Z" fill="#579fce" stroke="#579fce" stroke-width="1.51"/><path d="M789,481L802,174L659,413Z" fill="#76b3d8" stroke="#76b3d8" stroke-width="1.51"/><path d="M867,887L1016,664L869,676Z" fill="#438ec5" stroke="#438ec5" stroke-width="1.51"/><path d="M614,871L867,887L869,676Z" fill="#498fc5" stroke="#498fc5" stroke-width="1.51"/><path d="M1016,664L1045,435L869,676Z" fill="#4b97c9" stroke="#4b97c9" stroke-width="1.51"/><path d="M1045,435L802,174L789,481Z" fill="#6dacd4" stroke="#6dacd4" stroke-width="1.51"/><path d="M540,245L422,226L322,499Z" fill="#96c5df" stroke="#96c5df" stroke-width="1.51"/><path d="M642,-39L422,226L540,245Z" fill="#a1c9e3" stroke="#a1c9e3" stroke-width="1.51"/><path d="M614,871L772,1104L867,887Z" fill="#4684bd" stroke="#4684bd" stroke-width="1.51"/><path d="M442,696L395,905L614,871Z" fill="#669ccb" stroke="#669ccb" stroke-width="1.51"/><path d="M219,626L395,905L442,696Z" fill="#76a8d2" stroke="#76a8d2" stroke-width="1.51"/><path d="M322,499L219,626L442,696Z" fill="#81b4d8" stroke="#81b4d8" stroke-width="1.51"/><path d="M103,488L219,626L322,499Z" fill="#8fbcde" stroke="#8fbcde" stroke-width="1.51"/><path d="M616,1113L772,1104L614,871Z" fill="#4b81bb" stroke="#4b81bb" stroke-width="1.51"/><path d="M867,887L1119,890L1016,664Z" fill="#3684bf" stroke="#3684bf" stroke-width="1.51"/><path d="M395,905L616,1113L614,871Z" fill="#5b8dc1" stroke="#5b8dc1" stroke-width="1.51"/><path d="M1016,664L1249,619L1045,435Z" fill="#4691c6" stroke="#4691c6" stroke-width="1.51"/><path d="M1082,1196L1119,890L867,887Z" fill="#2d74b4" stroke="#2d74b4" stroke-width="1.51"/><path d="M117,208L103,488L322,499Z" fill="#9fc7e3" stroke="#9fc7e3" stroke-width="1.51"/><path d="M219,626L219,966L395,905Z" fill="#77a2d0" stroke="#77a2d0" stroke-width="1.51"/><path d="M802,174L642,-39L540,245Z" fill="#98c4e1" stroke="#98c4e1" stroke-width="1.51"/><path d="M998,-4L827,3L802,174Z" fill="#91bcde" stroke="#91bcde" stroke-width="1.51"/><path d="M1119,890L1249,619L1016,664Z" fill="#3684c0" stroke="#3684c0" stroke-width="1.51"/><path d="M1045,435L1129,185L802,174Z" fill="#73add4" stroke="#73add4" stroke-width="1.51"/><path d="M1333,281L1129,185L1045,435Z" fill="#67a0cd" stroke="#67a0cd" stroke-width="1.51"/><path d="M827,3L642,-39L802,174Z" fill="#99c3e2" stroke="#99c3e2" stroke-width="1.51"/><path d="M422,226L117,208L322,499Z" fill="#a2cae3" stroke="#a2cae3" stroke-width="1.51"/><path d="M395,905L412,1192L616,1113Z" fill="#5e87bb" stroke="#5e87bb" stroke-width="1.51"/><path d="M-58,856L219,966L219,626Z" fill="#82a7d4" stroke="#82a7d4" stroke-width="1.51"/><path d="M642,-39L312,53L422,226Z" fill="#aed0e6" stroke="#aed0e6" stroke-width="1.51"/><path d="M312,53L117,208L422,226Z" fill="#b2d3e8" stroke="#b2d3e8" stroke-width="1.51"/><path d="M1129,185L998,-4L802,174Z" fill="#85b4d9" stroke="#85b4d9" stroke-width="1.51"/><path d="M777,-226L678,-221L642,-39Z" fill="#aacee8" stroke="#aacee8" stroke-width="1.51"/><path d="M215,1130L412,1192L395,905Z" fill="#688bbd" stroke="#688bbd" stroke-width="1.51"/><path d="M616,1113L412,1192L772,1104Z" fill="#4f7baf" stroke="#4f7baf" stroke-width="1.51"/><path d="M1249,619L1334,423L1045,435Z" fill="#4a91c7" stroke="#4a91c7" stroke-width="1.51"/><path d="M1129,185L1345,-19L998,-4Z" fill="#84acd6" stroke="#84acd6" stroke-width="1.51"/><path d="M1334,423L1333,281L1045,435Z" fill="#5997c9" stroke="#5997c9" stroke-width="1.51"/><path d="M219,966L215,1130L395,905Z" fill="#7193c5" stroke="#7193c5" stroke-width="1.51"/><path d="M-58,856L215,1130L219,966Z" fill="#7b99ca" stroke="#7b99ca" stroke-width="1.51"/><path d="M1119,890L1320,877L1249,619Z" fill="#2a78b8" stroke="#2a78b8" stroke-width="1.51"/><path d="M1249,619L1452,418L1334,423Z" fill="#4689c2" stroke="#4689c2" stroke-width="1.51"/><path d="M1250,1093L1320,877L1119,890Z" fill="#216cb0" stroke="#216cb0" stroke-width="1.51"/><path d="M103,488L-131,665L219,626Z" fill="#93bcde" stroke="#93bcde" stroke-width="1.51"/><path d="M-48,218L-87,511L103,488Z" fill="#a7cce6" stroke="#a7cce6" stroke-width="1.51"/><path d="M412,1192L1082,1196L772,1104Z" fill="#3f71a8" stroke="#3f71a8" stroke-width="1.51"/><path d="M772,1104L1082,1196L867,887Z" fill="#3573b1" stroke="#3573b1" stroke-width="1.51"/><path d="M642,-39L397,-234L312,53Z" fill="#b9d7ea" stroke="#b9d7ea" stroke-width="1.51"/><path d="M777,-226L642,-39L827,3Z" fill="#a2c8e5" stroke="#a2c8e5" stroke-width="1.51"/><path d="M-131,665L-58,856L219,626Z" fill="#8db4da" stroke="#8db4da" stroke-width="1.51"/><path d="M81,1L117,208L312,53Z" fill="#c2d9ee" stroke="#c2d9ee" stroke-width="1.51"/><path d="M81,1L-48,218L117,208Z" fill="#c2daed" stroke="#c2daed" stroke-width="1.51"/><path d="M117,208L-48,218L103,488Z" fill="#b0d1e8" stroke="#b0d1e8" stroke-width="1.51"/><path d="M1082,1196L1250,1093L1119,890Z" fill="#2268aa" stroke="#2268aa" stroke-width="1.51"/><path d="M1098,-282L777,-226L998,-4Z" fill="#9bc1e1" stroke="#9bc1e1" stroke-width="1.51"/><path d="M998,-4L777,-226L827,3Z" fill="#9bc1e1" stroke="#9bc1e1" stroke-width="1.51"/><path d="M1334,423L1452,418L1333,281Z" fill="#568fc4" stroke="#568fc4" stroke-width="1.51"/><path d="M1557,743L1452,418L1249,619Z" fill="#387db9" stroke="#387db9" stroke-width="1.51"/><path d="M-295,406L-131,665L-87,511Z" fill="#a3c7e4" stroke="#a3c7e4" stroke-width="1.51"/><path d="M-87,511L-131,665L103,488Z" fill="#9bc2e1" stroke="#9bc2e1" stroke-width="1.51"/><path d="M140,-245L81,1L312,53Z" fill="#ccdff1" stroke="#ccdff1" stroke-width="1.51"/><path d="M1098,-282L397,-234L678,-221Z" fill="#aed0e9" stroke="#aed0e9" stroke-width="1.51"/><path d="M678,-221L397,-234L642,-39Z" fill="#b5d4ea" stroke="#b5d4ea" stroke-width="1.51"/><path d="M1333,281L1345,-19L1129,185Z" fill="#76a1cf" stroke="#76a1cf" stroke-width="1.51"/><path d="M1452,418L1477,281L1333,281Z" fill="#5c8fc3" stroke="#5c8fc3" stroke-width="1.51"/><path d="M1477,281L1345,-19L1333,281Z" fill="#6f99c9" stroke="#6f99c9" stroke-width="1.51"/><path d="M1452,418L1776,445L1477,281Z" fill="#5083bb" stroke="#5083bb" stroke-width="1.51"/><path d="M1320,877L1557,743L1249,619Z" fill="#2974b5" stroke="#2974b5" stroke-width="1.51"/><path d="M1549,840L1557,743L1320,877Z" fill="#1e68ad" stroke="#1e68ad" stroke-width="1.51"/><path d="M1491,1056L1549,840L1320,877Z" fill="#1761a8" stroke="#1761a8" stroke-width="1.51"/><path d="M-48,218L-295,406L-87,511Z" fill="#b1d2e9" stroke="#b1d2e9" stroke-width="1.51"/><path d="M81,1L-121,39L-48,218Z" fill="#cbdef1" stroke="#cbdef1" stroke-width="1.51"/><path d="M-78,-215L-121,39L81,1Z" fill="#d5e5f4" stroke="#d5e5f4" stroke-width="1.51"/><path d="M1219,-226L1098,-282L998,-4Z" fill="#95b8dc" stroke="#95b8dc" stroke-width="1.51"/><path d="M777,-226L1098,-282L678,-221Z" fill="#a6c9e5" stroke="#a6c9e5" stroke-width="1.51"/><path d="M397,-234L140,-245L312,53Z" fill="#c9dff0" stroke="#c9dff0" stroke-width="1.51"/><path d="M1098,-282L140,-245L397,-234Z" fill="#bdd9ec" stroke="#bdd9ec" stroke-width="1.51"/><path d="M1345,-19L1219,-226L998,-4Z" fill="#8dafd8" stroke="#8dafd8" stroke-width="1.51"/><path d="M1250,1093L1491,1056L1320,877Z" fill="#1760a8" stroke="#1760a8" stroke-width="1.51"/><path d="M1082,1196L1491,1056L1250,1093Z" fill="#185ba0" stroke="#185ba0" stroke-width="1.51"/><path d="M-235,158L-295,406L-48,218Z" fill="#c1dced" stroke="#c1dced" stroke-width="1.51"/><path d="M-131,665L-341,672L-58,856Z" fill="#95b7dc" stroke="#95b7dc" stroke-width="1.51"/><path d="M-121,39L-235,158L-48,218Z" fill="#cadff0" stroke="#cadff0" stroke-width="1.51"/><path d="M-231,-59L-235,158L-121,39Z" fill="#d6e5f4" stroke="#d6e5f4" stroke-width="1.51"/><path d="M-295,406L-341,672L-131,665Z" fill="#a2c6e3" stroke="#a2c6e3" stroke-width="1.51"/><path d="M-58,856L-142,1189L215,1130Z" fill="#7e95c6" stroke="#7e95c6" stroke-width="1.51"/><path d="M-321,976L-142,1189L-58,856Z" fill="#889ecc" stroke="#889ecc" stroke-width="1.51"/><path d="M215,1130L-142,1189L412,1192Z" fill="#7186b5" stroke="#7186b5" stroke-width="1.51"/><path d="M412,1192L-142,1189L1082,1196Z" fill="#5b7cab" stroke="#5b7cab" stroke-width="1.51"/><path d="M1345,-19L1571,-161L1219,-226Z" fill="#89a6d2" stroke="#89a6d2" stroke-width="1.51"/><path d="M1477,281L1535,-39L1345,-19Z" fill="#7999ca" stroke="#7999ca" stroke-width="1.51"/><path d="M1800,179L1535,-39L1477,281Z" fill="#6e8dbf" stroke="#6e8dbf" stroke-width="1.51"/><path d="M-341,672L-321,976L-58,856Z" fill="#92b0d8" stroke="#92b0d8" stroke-width="1.51"/><path d="M140,-245L-78,-215L81,1Z" fill="#d7e6f5" stroke="#d7e6f5" stroke-width="1.51"/><path d="M-295,406L-235,-238L-341,672Z" fill="#c2dded" stroke="#c2dded" stroke-width="1.51"/><path d="M-235,158L-231,-59L-295,406Z" fill="#cce1f0" stroke="#cce1f0" stroke-width="1.51"/><path d="M-78,-215L-231,-59L-121,39Z" fill="#dbe9f6" stroke="#dbe9f6" stroke-width="1.51"/><path d="M1557,743L1776,445L1452,418Z" fill="#3b77b3" stroke="#3b77b3" stroke-width="1.51"/><path d="M1549,840L1738,842L1557,743Z" fill="#1c61a6" stroke="#1c61a6" stroke-width="1.51"/><path d="M1491,1056L1738,842L1549,840Z" fill="#135aa2" stroke="#135aa2" stroke-width="1.51"/><path d="M1796,648L1776,445L1557,743Z" fill="#2f6aa5" stroke="#2f6aa5" stroke-width="1.51"/><path d="M1738,842L1796,648L1557,743Z" fill="#2261a2" stroke="#2261a2" stroke-width="1.51"/><path d="M-341,672L-336,1106L-321,976Z" fill="#93aad5" stroke="#93aad5" stroke-width="1.51"/><path d="M-321,976L-336,1106L-142,1189Z" fill="#8999c6" stroke="#8999c6" stroke-width="1.51"/><path d="M1535,-39L1571,-161L1345,-19Z" fill="#829dcc" stroke="#829dcc" stroke-width="1.51"/><path d="M1219,-226L1918,-238L1098,-282Z" fill="#90a8d3" stroke="#90a8d3" stroke-width="1.51"/><path d="M1721,-66L1571,-161L1535,-39Z" fill="#7f95c5" stroke="#7f95c5" stroke-width="1.51"/><path d="M1996,281L1800,179L1776,445Z" fill="#5475a3" stroke="#5475a3" stroke-width="1.51"/><path d="M1776,445L1800,179L1477,281Z" fill="#5980b3" stroke="#5980b3" stroke-width="1.51"/><path d="M-78,-215L-235,-238L-231,-59Z" fill="#e2edf8" stroke="#e2edf8" stroke-width="1.51"/><path d="M-231,-59L-235,-238L-295,406Z" fill="#d9e7f5" stroke="#d9e7f5" stroke-width="1.51"/><path d="M140,-245L-235,-238L-78,-215Z" fill="#e1ecf8" stroke="#e1ecf8" stroke-width="1.51"/><path d="M1098,-282L-235,-238L140,-245Z" fill="#cde2f0" stroke="#cde2f0" stroke-width="1.51"/><path d="M1491,1056L1739,1122L1738,842Z" fill="#0c4f97" stroke="#0c4f97" stroke-width="1.51"/><path d="M1738,842L1940,618L1796,648Z" fill="#245c98" stroke="#245c98" stroke-width="1.51"/><path d="M1082,1196L1739,1122L1491,1056Z" fill="#105198" stroke="#105198" stroke-width="1.51"/><path d="M1800,179L1721,-66L1535,-39Z" fill="#768cbb" stroke="#768cbb" stroke-width="1.51"/><path d="M1796,648L1940,618L1776,445Z" fill="#32659c" stroke="#32659c" stroke-width="1.51"/><path d="M1963,949L1940,618L1738,842Z" fill="#1b5391" stroke="#1b5391" stroke-width="1.51"/><path d="M1918,-238L1743,-177L1721,-66Z" fill="#7d8cb5" stroke="#7d8cb5" stroke-width="1.51"/><path d="M1721,-66L1743,-177L1571,-161Z" fill="#8092bf" stroke="#8092bf" stroke-width="1.51"/><path d="M1571,-161L1918,-238L1219,-226Z" fill="#899ccb" stroke="#899ccb" stroke-width="1.51"/><path d="M2018,14L1721,-66L1800,179Z" fill="#6f81ac" stroke="#6f81ac" stroke-width="1.51"/><path d="M1940,618L2001,407L1776,445Z" fill="#3b699e" stroke="#3b699e" stroke-width="1.51"/><path d="M1739,1122L1963,949L1738,842Z" fill="#0e498b" stroke="#0e498b" stroke-width="1.51"/><path d="M1940,618L1963,949L2001,407Z" fill="#285e97" stroke="#285e97" stroke-width="1.51"/><path d="M2001,407L1996,281L1776,445Z" fill="#4a70a1" stroke="#4a70a1" stroke-width="1.51"/><path d="M1739,1122L1939,1173L1963,949Z" fill="#093d7f" stroke="#093d7f" stroke-width="1.51"/><path d="M1082,1196L1939,1173L1739,1122Z" fill="#09468b" stroke="#09468b" stroke-width="1.51"/><path d="M2001,407L2018,14L1996,281Z" fill="#5c79a5" stroke="#5c79a5" stroke-width="1.51"/><path d="M1996,281L2018,14L1800,179Z" fill="#647ca8" stroke="#647ca8" stroke-width="1.51"/><path d="M2018,14L1918,-238L1721,-66Z" fill="#7785ae" stroke="#7785ae" stroke-width="1.51"/><path d="M1743,-177L1918,-238L1571,-161Z" fill="#8290ba" stroke="#8290ba" stroke-width="1.51"/></svg>